<?xml version="1.0" standalone="no"?>
<!DOCTYPE svg PUBLIC "-//W3C//DTD SVG 20010904//EN"
 "http://www.w3.org/TR/2001/REC-SVG-20010904/DTD/svg10.dtd">
<svg version="1.0" xmlns="http://www.w3.org/2000/svg"
 width="345.000000pt" height="345.000000pt" viewBox="0 0 345.000000 345.000000"
 preserveAspectRatio="xMidYMid meet">
<metadata>
Created by potrace 1.14, written by Peter Selinger 2001-2017
</metadata>
<g transform="translate(0.000000,345.000000) scale(0.100000,-0.100000)"
fill="#000000" stroke="none">
<path d="M351 2448 c-24 -84 -49 -173 -56 -198 -17 -58 -28 -95 -125 -440 -45
-157 -83 -292 -86 -301 -3 -13 7 -16 60 -16 58 -1 67 2 97 29 32 29 245 227
333 310 38 36 56 41 56 13 0 -16 87 -331 95 -344 5 -9 125 -12 125 -3 0 2 -50
187 -111 411 -60 223 -119 440 -130 481 -11 41 -29 105 -40 143 l-20 67 -78 0
-77 0 -43 -152z m229 -430 c0 -9 0 -9 -159 -158 -122 -114 -149 -135 -139
-109 3 8 31 106 63 219 31 113 63 225 70 250 8 25 24 79 36 120 l22 75 53
-195 c29 -107 53 -198 54 -202z"/>
<path d="M1035 2048 l1 -553 194 -1 c208 -1 284 9 349 48 97 57 140 126 148
233 12 155 -51 271 -168 310 -54 18 -57 25 -30 63 32 46 55 122 55 182 0 107
-73 210 -178 249 -29 11 -90 16 -206 19 l-165 4 0 -554z m341 406 c77 -38 103
-116 65 -199 -16 -36 -99 -123 -231 -243 l-45 -41 -3 242 c-1 133 0 247 2 253
8 20 165 11 212 -12z m148 -488 c48 -20 79 -76 80 -145 0 -76 -8 -101 -45
-139 -46 -47 -116 -64 -270 -66 l-129 -1 0 90 0 91 81 75 c44 41 97 82 117 91
45 21 121 23 166 4z"/>
<path d="M1919 2593 c-1 -4 -2 -252 -3 -551 -1 -474 1 -543 14 -547 8 -2 105
-2 215 -1 221 4 271 13 343 66 89 64 129 156 120 279 -9 128 -72 215 -180 250
-21 7 -38 15 -38 18 0 3 16 38 36 79 30 60 37 85 37 136 1 109 -52 194 -153
245 -53 27 -62 28 -222 31 -93 2 -168 0 -169 -5z m337 -139 c50 -25 84 -75 84
-127 0 -60 -43 -127 -133 -209 -45 -40 -100 -93 -124 -118 l-43 -45 0 262 0
261 89 -2 c62 -2 99 -9 127 -22z m154 -493 c46 -24 71 -69 75 -133 3 -71 -9
-110 -47 -147 -47 -46 -109 -62 -250 -65 -68 -1 -129 0 -135 2 -9 3 -13 30
-13 91 l0 88 86 78 c47 43 102 84 122 91 53 19 122 17 162 -5z"/>
<path d="M2799 2598 c-1 -2 -2 -251 -3 -554 l-1 -551 287 0 286 -1 4 41 c1 23
2 52 0 65 l-3 22 -225 0 -224 0 0 88 0 89 120 112 c66 62 120 116 120 119 0 4
-18 26 -39 50 l-40 43 -74 -70 c-41 -39 -77 -71 -81 -71 -9 0 -8 490 2 491 4
0 104 1 222 2 l215 2 3 63 3 62 -286 0 c-157 0 -286 -1 -286 -2z"/>
<path d="M642 1278 c0 -7 -2 -27 -3 -43 -2 -28 -5 -30 -33 -28 -53 5 -104 -58
-90 -113 7 -29 43 -41 73 -24 15 8 21 8 21 0 0 -22 23 -4 27 21 2 13 8 48 14
77 19 94 20 122 6 122 -8 0 -14 -6 -15 -12z m-18 -120 c-10 -50 -32 -80 -57
-76 -26 4 -33 30 -17 68 12 28 25 36 62 39 14 1 16 -5 12 -31z"/>
<path d="M1464 1248 c-4 -24 -8 -47 -9 -53 0 -5 -4 -23 -8 -40 -17 -74 -18
-95 -2 -95 8 0 15 8 16 18 0 9 2 26 4 37 25 123 30 175 19 175 -7 0 -16 -19
-20 -42z"/>
<path d="M2290 1286 c0 -3 -9 -53 -21 -112 -11 -58 -18 -109 -14 -112 10 -11
23 13 29 53 8 47 37 81 61 71 14 -5 16 -15 10 -66 -5 -39 -3 -60 3 -60 13 0
19 20 27 81 8 58 -11 79 -56 62 -33 -13 -34 -10 -20 50 7 29 6 37 -5 37 -8 0
-14 -2 -14 -4z"/>
<path d="M126 1248 c-12 -58 -25 -126 -30 -157 l-6 -34 52 5 c73 7 110 54 73
92 -14 14 -14 17 5 36 24 24 25 29 4 58 -22 32 -92 32 -98 0z m68 -4 c37 -14
6 -64 -39 -64 -12 0 -15 7 -11 28 2 15 5 30 5 35 1 9 23 9 45 1z m-6 -96 c26
-26 -1 -68 -44 -68 -19 0 -23 4 -20 23 3 12 5 30 5 40 1 20 40 24 59 5z"/>
<path d="M305 1200 c-50 -20 -69 -86 -36 -119 30 -30 67 -26 102 8 63 63 15
144 -66 111z m63 -33 c7 -33 -8 -67 -33 -79 -50 -22 -75 37 -34 81 24 26 62
25 67 -2z"/>
<path d="M449 1208 c-1 -4 -6 -32 -14 -78 -3 -19 -8 -43 -11 -52 -3 -12 0 -18
9 -18 10 0 18 15 22 42 5 26 18 53 36 71 16 16 29 30 29 33 0 9 -20 3 -34 -12
-15 -14 -16 -14 -16 0 0 13 -18 24 -21 14z"/>
<path d="M733 1198 c-34 -16 -59 -72 -47 -105 11 -33 53 -43 74 -19 11 14 9
15 -19 10 -30 -6 -31 -5 -31 28 0 37 33 78 63 78 24 0 26 -11 12 -53 -15 -43
-10 -77 12 -77 8 0 12 3 9 8 -2 4 1 38 8 75 l13 67 -36 -1 c-20 0 -46 -5 -58
-11z"/>
<path d="M858 1135 c-11 -61 -12 -75 -1 -75 7 0 13 3 14 8 6 62 27 110 51 118
32 10 37 -8 24 -83 -9 -48 9 -62 20 -15 14 65 27 91 45 97 30 10 34 0 23 -65
-8 -47 -7 -60 3 -60 15 0 24 32 26 91 2 50 -20 72 -53 52 -15 -10 -25 -10 -45
-1 -19 8 -31 8 -50 0 -15 -7 -25 -8 -25 -2 0 6 -4 10 -9 10 -4 0 -15 -34 -23
-75z"/>
<path d="M1145 1200 c-50 -19 -69 -86 -36 -119 30 -30 67 -27 102 8 63 64 15
145 -66 111z m51 -18 c19 -12 22 -36 8 -64 -28 -55 -91 -43 -80 16 9 44 44 67
72 48z"/>
<path d="M1293 1198 c-23 -30 -22 -38 3 -61 33 -31 27 -62 -12 -54 -15 3 -23
0 -21 -7 7 -22 54 -18 71 6 21 30 21 33 -10 62 -28 25 -25 46 7 46 10 0 19 5
19 10 0 14 -46 12 -57 -2z"/>
<path d="M1543 1198 c-37 -18 -50 -91 -22 -119 28 -28 75 -21 105 14 58 69 -2
144 -83 105z m61 -14 c36 -14 4 -104 -37 -104 -38 0 -49 58 -17 90 21 21 29
23 54 14z"/>
<path d="M1768 1193 c-58 -36 -58 -132 0 -133 7 0 22 5 34 11 21 11 21 14 3
-48 -5 -17 -2 -23 9 -23 13 0 19 15 31 80 3 14 9 46 13 72 7 38 6 48 -5 52
-26 10 -57 6 -85 -11z m66 -30 c-9 -58 -45 -96 -74 -78 -32 20 13 105 55 105
20 0 23 -4 19 -27z"/>
<path d="M1904 1173 c-4 -21 -8 -46 -10 -57 -2 -10 1 -27 7 -38 11 -20 30 -21
73 -3 14 6 17 5 12 -3 -4 -7 -1 -12 7 -12 10 0 18 22 26 71 6 40 10 74 7 76
-11 11 -24 -10 -29 -48 -6 -48 -37 -85 -62 -75 -14 5 -16 14 -10 52 3 26 9 53
12 60 3 8 -1 14 -10 14 -11 0 -18 -13 -23 -37z"/>
<path d="M2079 1181 c-34 -34 -39 -79 -11 -104 21 -19 59 -22 82 -7 16 11 9
13 -32 10 -18 -1 -30 5 -38 19 -12 23 -8 27 42 35 39 7 48 14 48 41 0 44 -50
47 -91 6z m68 -8 c5 -13 -37 -28 -58 -21 -17 6 20 40 39 36 8 -2 17 -8 19 -15z"/>
<path d="M2470 1197 c-31 -15 -64 -79 -55 -107 9 -28 49 -36 80 -16 15 10 24
12 23 5 -2 -6 2 -13 8 -16 11 -4 36 124 27 140 -7 11 -55 8 -83 -6z m54 -44
c-8 -44 -35 -76 -61 -71 -47 9 -4 108 47 108 19 0 20 -4 14 -37z"/>
<path d="M2609 1181 c-51 -52 -28 -127 37 -119 39 4 40 23 2 23 -30 0 -33 3
-36 32 -4 38 26 73 63 73 14 0 25 5 25 10 0 23 -62 10 -91 -19z"/>
<path d="M2736 1179 c-30 -36 -34 -79 -8 -102 21 -19 59 -22 82 -7 16 10 14
11 -34 13 -20 2 -31 9 -37 25 -7 19 -5 22 16 22 60 0 98 36 69 65 -25 24 -60
18 -88 -16z m71 -6 c5 -13 -37 -28 -58 -21 -17 6 20 40 39 36 8 -2 17 -8 19
-15z"/>
<path d="M2876 1193 c-3 -10 -8 -36 -11 -58 -4 -22 -9 -48 -12 -57 -3 -11 1
-18 10 -18 10 0 17 16 22 49 7 53 34 87 60 77 13 -4 15 -15 10 -48 -3 -24 -8
-51 -11 -60 -4 -12 0 -18 10 -18 9 0 16 8 17 18 2 63 29 112 59 112 22 0 24
-17 11 -87 -6 -32 -5 -43 4 -43 12 0 19 23 31 101 7 38 -19 56 -58 41 -22 -8
-35 -8 -48 0 -14 9 -25 9 -44 0 -16 -7 -26 -8 -26 -2 0 17 -18 11 -24 -7z"/>
<path d="M3147 1199 c-9 -5 -24 -23 -32 -39 -27 -52 0 -100 55 -100 33 0 80
53 80 89 0 48 -57 77 -103 50z m67 -25 c13 -13 14 -20 3 -46 -26 -64 -84 -63
-80 1 2 56 43 80 77 45z"/>
<path d="M3296 1195 c-21 -22 -20 -34 5 -61 25 -27 19 -57 -10 -52 -11 2 -21
-1 -23 -7 -5 -18 43 -17 63 1 26 23 24 39 -8 69 -24 22 -26 27 -13 35 8 6 23
8 33 6 11 -3 17 0 14 7 -6 19 -43 20 -61 2z"/>
</g>
</svg>
